<?xml version="1.0" encoding="UTF-8" standalone="no"?>
<!DOCTYPE svg PUBLIC "-//W3C//DTD SVG 1.1//EN"
 "http://www.w3.org/Graphics/SVG/1.1/DTD/svg11.dtd">
<!-- Generated by graphviz version 2.43.0 (0)
 -->
<!-- Title: %3 Pages: 1 -->
<svg width="2560pt" height="548pt"
 viewBox="0.00 0.00 2560.00 548.00" xmlns="http://www.w3.org/2000/svg" xmlns:xlink="http://www.w3.org/1999/xlink">
<g id="graph0" class="graph" transform="scale(1 1) rotate(0) translate(4 544)">
<title>%3</title>
<polygon fill="white" stroke="transparent" points="-4,4 -4,-544 2556,-544 2556,4 -4,4"/>
<!-- [root] aws_eip.nat_eip (expand) -->
<g id="node1" class="node">
<title>[root] aws_eip.nat_eip (expand)</title>
<polygon fill="none" stroke="black" points="428,-324 324,-324 324,-288 428,-288 428,-324"/>
<text text-anchor="middle" x="376" y="-302.3" font-family="Times,serif" font-size="14.00">aws_eip.nat_eip</text>
</g>
<!-- [root] aws_internet_gateway.ig (expand) -->
<g id="node2" class="node">
<title>[root] aws_internet_gateway.ig (expand)</title>
<polygon fill="none" stroke="black" points="378.5,-252 227.5,-252 227.5,-216 378.5,-216 378.5,-252"/>
<text text-anchor="middle" x="303" y="-230.3" font-family="Times,serif" font-size="14.00">aws_internet_gateway.ig</text>
</g>
<!-- [root] aws_eip.nat_eip (expand)&#45;&gt;[root] aws_internet_gateway.ig (expand) -->
<g id="edge1" class="edge">
<title>[root] aws_eip.nat_eip (expand)&#45;&gt;[root] aws_internet_gateway.ig (expand)</title>
<path fill="none" stroke="black" d="M357.96,-287.7C348.94,-279.05 337.88,-268.45 328.06,-259.03"/>
<polygon fill="black" stroke="black" points="330.48,-256.5 320.84,-252.1 325.63,-261.55 330.48,-256.5"/>
</g>
<!-- [root] var.name -->
<g id="node24" class="node">
<title>[root] var.name</title>
<polygon fill="none" stroke="black" points="457.5,-252 396.5,-252 396.5,-216 463.5,-216 463.5,-246 457.5,-252"/>
<polyline fill="none" stroke="black" points="457.5,-252 457.5,-246 "/>
<polyline fill="none" stroke="black" points="463.5,-246 457.5,-246 "/>
<text text-anchor="middle" x="430" y="-230.3" font-family="Times,serif" font-size="14.00">var.name</text>
</g>
<!-- [root] aws_eip.nat_eip (expand)&#45;&gt;[root] var.name -->
<g id="edge2" class="edge">
<title>[root] aws_eip.nat_eip (expand)&#45;&gt;[root] var.name</title>
<path fill="none" stroke="black" d="M389.35,-287.7C395.76,-279.39 403.56,-269.28 410.61,-260.14"/>
<polygon fill="black" stroke="black" points="413.47,-262.16 416.81,-252.1 407.93,-257.88 413.47,-262.16"/>
</g>
<!-- [root] aws_vpc.vpc (expand) -->
<g id="node11" class="node">
<title>[root] aws_vpc.vpc (expand)</title>
<polygon fill="none" stroke="black" points="592.5,-180 505.5,-180 505.5,-144 592.5,-144 592.5,-180"/>
<text text-anchor="middle" x="549" y="-158.3" font-family="Times,serif" font-size="14.00">aws_vpc.vpc</text>
</g>
<!-- [root] aws_internet_gateway.ig (expand)&#45;&gt;[root] aws_vpc.vpc (expand) -->
<g id="edge3" class="edge">
<title>[root] aws_internet_gateway.ig (expand)&#45;&gt;[root] aws_vpc.vpc (expand)</title>
<path fill="none" stroke="black" d="M362.86,-215.97C403.38,-204.44 456.43,-189.34 495.52,-178.22"/>
<polygon fill="black" stroke="black" points="496.49,-181.58 505.15,-175.48 494.57,-174.85 496.49,-181.58"/>
</g>
<!-- [root] aws_nat_gateway.nat_gateway (expand) -->
<g id="node3" class="node">
<title>[root] aws_nat_gateway.nat_gateway (expand)</title>
<polygon fill="none" stroke="black" points="828,-396 644,-396 644,-360 828,-360 828,-396"/>
<text text-anchor="middle" x="736" y="-374.3" font-family="Times,serif" font-size="14.00">aws_nat_gateway.nat_gateway</text>
</g>
<!-- [root] aws_nat_gateway.nat_gateway (expand)&#45;&gt;[root] aws_eip.nat_eip (expand) -->
<g id="edge4" class="edge">
<title>[root] aws_nat_gateway.nat_gateway (expand)&#45;&gt;[root] aws_eip.nat_eip (expand)</title>
<path fill="none" stroke="black" d="M643.76,-361.65C575.78,-350.16 488.01,-334.93 438.19,-324.13"/>
<polygon fill="black" stroke="black" points="438.68,-320.65 428.16,-321.89 437.16,-327.48 438.68,-320.65"/>
</g>
<!-- [root] aws_subnet.private (expand) -->
<g id="node9" class="node">
<title>[root] aws_subnet.private (expand)</title>
<polygon fill="none" stroke="black" points="1316.5,-324 1195.5,-324 1195.5,-288 1316.5,-288 1316.5,-324"/>
<text text-anchor="middle" x="1256" y="-302.3" font-family="Times,serif" font-size="14.00">aws_subnet.private</text>
</g>
<!-- [root] aws_nat_gateway.nat_gateway (expand)&#45;&gt;[root] aws_subnet.private (expand) -->
<g id="edge5" class="edge">
<title>[root] aws_nat_gateway.nat_gateway (expand)&#45;&gt;[root] aws_subnet.private (expand)</title>
<path fill="none" stroke="black" d="M828.17,-361.33C831.15,-360.87 834.1,-360.43 837,-360 959.04,-342.02 1101.63,-324.78 1185.05,-315.08"/>
<polygon fill="black" stroke="black" points="1185.65,-318.53 1195.18,-313.9 1184.84,-311.58 1185.65,-318.53"/>
</g>
<!-- [root] aws_route.public_route (expand) -->
<g id="node4" class="node">
<title>[root] aws_route.public_route (expand)</title>
<polygon fill="none" stroke="black" points="623,-396 479,-396 479,-360 623,-360 623,-396"/>
<text text-anchor="middle" x="551" y="-374.3" font-family="Times,serif" font-size="14.00">aws_route.public_route</text>
</g>
<!-- [root] aws_route.public_route (expand)&#45;&gt;[root] aws_internet_gateway.ig (expand) -->
<g id="edge6" class="edge">
<title>[root] aws_route.public_route (expand)&#45;&gt;[root] aws_internet_gateway.ig (expand)</title>
<path fill="none" stroke="black" d="M478.86,-369.81C417.81,-362.17 336.85,-347.84 315,-324 299.98,-307.61 297.97,-281.87 299.13,-262.27"/>
<polygon fill="black" stroke="black" points="302.64,-262.39 300.05,-252.12 295.67,-261.77 302.64,-262.39"/>
</g>
<!-- [root] aws_route_table.public_route_table (expand) -->
<g id="node6" class="node">
<title>[root] aws_route_table.public_route_table (expand)</title>
<polygon fill="none" stroke="black" points="656,-324 446,-324 446,-288 656,-288 656,-324"/>
<text text-anchor="middle" x="551" y="-302.3" font-family="Times,serif" font-size="14.00">aws_route_table.public_route_table</text>
</g>
<!-- [root] aws_route.public_route (expand)&#45;&gt;[root] aws_route_table.public_route_table (expand) -->
<g id="edge7" class="edge">
<title>[root] aws_route.public_route (expand)&#45;&gt;[root] aws_route_table.public_route_table (expand)</title>
<path fill="none" stroke="black" d="M551,-359.7C551,-351.98 551,-342.71 551,-334.11"/>
<polygon fill="black" stroke="black" points="554.5,-334.1 551,-324.1 547.5,-334.1 554.5,-334.1"/>
</g>
<!-- [root] aws_route_table.private_route_table (expand) -->
<g id="node5" class="node">
<title>[root] aws_route_table.private_route_table (expand)</title>
<polygon fill="none" stroke="black" points="888,-324 674,-324 674,-288 888,-288 888,-324"/>
<text text-anchor="middle" x="781" y="-302.3" font-family="Times,serif" font-size="14.00">aws_route_table.private_route_table</text>
</g>
<!-- [root] aws_route_table.private_route_table (expand)&#45;&gt;[root] aws_vpc.vpc (expand) -->
<g id="edge8" class="edge">
<title>[root] aws_route_table.private_route_table (expand)&#45;&gt;[root] aws_vpc.vpc (expand)</title>
<path fill="none" stroke="black" d="M684.28,-287.99C626.6,-276.89 562.87,-262.55 554,-252 539.89,-235.2 539.87,-209.72 542.67,-190.32"/>
<polygon fill="black" stroke="black" points="546.15,-190.72 544.44,-180.26 539.26,-189.5 546.15,-190.72"/>
</g>
<!-- [root] aws_route_table.private_route_table (expand)&#45;&gt;[root] var.name -->
<g id="edge9" class="edge">
<title>[root] aws_route_table.private_route_table (expand)&#45;&gt;[root] var.name</title>
<path fill="none" stroke="black" d="M695.58,-287.97C625.48,-273.98 529.05,-254.75 473.75,-243.73"/>
<polygon fill="black" stroke="black" points="474.41,-240.29 463.92,-241.76 473.04,-247.15 474.41,-240.29"/>
</g>
<!-- [root] aws_route_table.public_route_table (expand)&#45;&gt;[root] aws_vpc.vpc (expand) -->
<g id="edge10" class="edge">
<title>[root] aws_route_table.public_route_table (expand)&#45;&gt;[root] aws_vpc.vpc (expand)</title>
<path fill="none" stroke="black" d="M535.82,-287.7C528.27,-277.94 519.93,-265.1 516,-252 511.4,-236.68 511.6,-231.38 516,-216 518.71,-206.51 523.67,-197.06 528.93,-188.83"/>
<polygon fill="black" stroke="black" points="531.92,-190.67 534.67,-180.43 526.14,-186.72 531.92,-190.67"/>
</g>
<!-- [root] aws_route_table.public_route_table (expand)&#45;&gt;[root] var.name -->
<g id="edge11" class="edge">
<title>[root] aws_route_table.public_route_table (expand)&#45;&gt;[root] var.name</title>
<path fill="none" stroke="black" d="M521.4,-287.88C505.43,-278.64 485.54,-267.13 468.39,-257.21"/>
<polygon fill="black" stroke="black" points="470.12,-254.17 459.71,-252.19 466.62,-260.23 470.12,-254.17"/>
</g>
<!-- [root] aws_route_table_association.private_rta (expand) -->
<g id="node7" class="node">
<title>[root] aws_route_table_association.private_rta (expand)</title>
<polygon fill="none" stroke="black" points="1328,-396 1094,-396 1094,-360 1328,-360 1328,-396"/>
<text text-anchor="middle" x="1211" y="-374.3" font-family="Times,serif" font-size="14.00">aws_route_table_association.private_rta</text>
</g>
<!-- [root] aws_route_table_association.private_rta (expand)&#45;&gt;[root] aws_route_table.private_route_table (expand) -->
<g id="edge12" class="edge">
<title>[root] aws_route_table_association.private_rta (expand)&#45;&gt;[root] aws_route_table.private_route_table (expand)</title>
<path fill="none" stroke="black" d="M1106.36,-359.97C1042.63,-349.59 961.16,-336.33 895.69,-325.67"/>
<polygon fill="black" stroke="black" points="896.17,-322.2 885.74,-324.05 895.04,-329.11 896.17,-322.2"/>
</g>
<!-- [root] aws_route_table_association.private_rta (expand)&#45;&gt;[root] aws_subnet.private (expand) -->
<g id="edge13" class="edge">
<title>[root] aws_route_table_association.private_rta (expand)&#45;&gt;[root] aws_subnet.private (expand)</title>
<path fill="none" stroke="black" d="M1222.12,-359.7C1227.36,-351.56 1233.7,-341.69 1239.48,-332.7"/>
<polygon fill="black" stroke="black" points="1242.54,-334.41 1245,-324.1 1236.65,-330.62 1242.54,-334.41"/>
</g>
<!-- [root] aws_route_table_association.public_rta (expand) -->
<g id="node8" class="node">
<title>[root] aws_route_table_association.public_rta (expand)</title>
<polygon fill="none" stroke="black" points="1076,-396 846,-396 846,-360 1076,-360 1076,-396"/>
<text text-anchor="middle" x="961" y="-374.3" font-family="Times,serif" font-size="14.00">aws_route_table_association.public_rta</text>
</g>
<!-- [root] aws_route_table_association.public_rta (expand)&#45;&gt;[root] aws_route_table.public_route_table (expand) -->
<g id="edge14" class="edge">
<title>[root] aws_route_table_association.public_rta (expand)&#45;&gt;[root] aws_route_table.public_route_table (expand)</title>
<path fill="none" stroke="black" d="M861.23,-359.97C800.59,-349.61 723.1,-336.38 660.74,-325.74"/>
<polygon fill="black" stroke="black" points="661.31,-322.28 650.86,-324.05 660.13,-329.18 661.31,-322.28"/>
</g>
<!-- [root] aws_subnet.public (expand) -->
<g id="node10" class="node">
<title>[root] aws_subnet.public (expand)</title>
<polygon fill="none" stroke="black" points="1023.5,-324 906.5,-324 906.5,-288 1023.5,-288 1023.5,-324"/>
<text text-anchor="middle" x="965" y="-302.3" font-family="Times,serif" font-size="14.00">aws_subnet.public</text>
</g>
<!-- [root] aws_route_table_association.public_rta (expand)&#45;&gt;[root] aws_subnet.public (expand) -->
<g id="edge15" class="edge">
<title>[root] aws_route_table_association.public_rta (expand)&#45;&gt;[root] aws_subnet.public (expand)</title>
<path fill="none" stroke="black" d="M961.99,-359.7C962.43,-351.98 962.96,-342.71 963.45,-334.11"/>
<polygon fill="black" stroke="black" points="966.95,-334.29 964.02,-324.1 959.96,-333.89 966.95,-334.29"/>
</g>
<!-- [root] aws_subnet.private (expand)&#45;&gt;[root] aws_vpc.vpc (expand) -->
<g id="edge16" class="edge">
<title>[root] aws_subnet.private (expand)&#45;&gt;[root] aws_vpc.vpc (expand)</title>
<path fill="none" stroke="black" d="M1195.13,-294.75C1158.13,-286.77 1110.88,-273.37 1073,-252 1052.46,-240.41 1055.47,-225.77 1034,-216 958.2,-181.5 712.65,-168.73 602.88,-164.66"/>
<polygon fill="black" stroke="black" points="602.81,-161.16 592.69,-164.29 602.56,-168.15 602.81,-161.16"/>
</g>
<!-- [root] random_shuffle.aws_availability_zones (expand) -->
<g id="node15" class="node">
<title>[root] random_shuffle.aws_availability_zones (expand)</title>
<polygon fill="none" stroke="black" points="2232.5,-252 1999.5,-252 1999.5,-216 2232.5,-216 2232.5,-252"/>
<text text-anchor="middle" x="2116" y="-230.3" font-family="Times,serif" font-size="14.00">random_shuffle.aws_availability_zones</text>
</g>
<!-- [root] aws_subnet.private (expand)&#45;&gt;[root] random_shuffle.aws_availability_zones (expand) -->
<g id="edge19" class="edge">
<title>[root] aws_subnet.private (expand)&#45;&gt;[root] random_shuffle.aws_availability_zones (expand)</title>
<path fill="none" stroke="black" d="M1316.62,-301.93C1440.83,-295.35 1733.42,-278.41 1989.03,-252.17"/>
<polygon fill="black" stroke="black" points="1989.67,-255.62 1999.26,-251.11 1988.95,-248.66 1989.67,-255.62"/>
</g>
<!-- [root] var.map_public_ip_on_private_subnets_on_launch -->
<g id="node21" class="node">
<title>[root] var.map_public_ip_on_private_subnets_on_launch</title>
<polygon fill="none" stroke="black" points="2537.5,-252 2250.5,-252 2250.5,-216 2543.5,-216 2543.5,-246 2537.5,-252"/>
<polyline fill="none" stroke="black" points="2537.5,-252 2537.5,-246 "/>
<polyline fill="none" stroke="black" points="2543.5,-246 2537.5,-246 "/>
<text text-anchor="middle" x="2397" y="-230.3" font-family="Times,serif" font-size="14.00">var.map_public_ip_on_private_subnets_on_launch</text>
</g>
<!-- [root] aws_subnet.private (expand)&#45;&gt;[root] var.map_public_ip_on_private_subnets_on_launch -->
<g id="edge20" class="edge">
<title>[root] aws_subnet.private (expand)&#45;&gt;[root] var.map_public_ip_on_private_subnets_on_launch</title>
<path fill="none" stroke="black" d="M1316.67,-302.91C1469.76,-297.39 1884.38,-280.87 2240.19,-252.12"/>
<polygon fill="black" stroke="black" points="2240.48,-255.61 2250.17,-251.31 2239.91,-248.64 2240.48,-255.61"/>
</g>
<!-- [root] var.subnets_newbit -->
<g id="node28" class="node">
<title>[root] var.subnets_newbit</title>
<polygon fill="none" stroke="black" points="1019.5,-252 904.5,-252 904.5,-216 1025.5,-216 1025.5,-246 1019.5,-252"/>
<polyline fill="none" stroke="black" points="1019.5,-252 1019.5,-246 "/>
<polyline fill="none" stroke="black" points="1025.5,-246 1019.5,-246 "/>
<text text-anchor="middle" x="965" y="-230.3" font-family="Times,serif" font-size="14.00">var.subnets_newbit</text>
</g>
<!-- [root] aws_subnet.private (expand)&#45;&gt;[root] var.subnets_newbit -->
<g id="edge21" class="edge">
<title>[root] aws_subnet.private (expand)&#45;&gt;[root] var.subnets_newbit</title>
<path fill="none" stroke="black" d="M1195.35,-290.41C1148.76,-279.2 1084.32,-263.7 1035.44,-251.94"/>
<polygon fill="black" stroke="black" points="1036.11,-248.51 1025.57,-249.57 1034.47,-255.31 1036.11,-248.51"/>
</g>
<!-- [root] local.preferred_number_of_private_subnets (expand) -->
<g id="node30" class="node">
<title>[root] local.preferred_number_of_private_subnets (expand)</title>
<ellipse fill="none" stroke="black" cx="1760" cy="-234" rx="221.76" ry="18"/>
<text text-anchor="middle" x="1760" y="-230.3" font-family="Times,serif" font-size="14.00">[root] local.preferred_number_of_private_subnets (expand)</text>
</g>
<!-- [root] aws_subnet.private (expand)&#45;&gt;[root] local.preferred_number_of_private_subnets (expand) -->
<g id="edge17" class="edge">
<title>[root] aws_subnet.private (expand)&#45;&gt;[root] local.preferred_number_of_private_subnets (expand)</title>
<path fill="none" stroke="black" d="M1316.54,-296.59C1397.04,-285.41 1540.98,-265.42 1643.02,-251.25"/>
<polygon fill="black" stroke="black" points="1643.65,-254.69 1653.07,-249.85 1642.68,-247.76 1643.65,-254.69"/>
</g>
<!-- [root] local.preferred_number_of_public_subnets (expand) -->
<g id="node31" class="node">
<title>[root] local.preferred_number_of_public_subnets (expand)</title>
<ellipse fill="none" stroke="black" cx="1301" cy="-234" rx="219.06" ry="18"/>
<text text-anchor="middle" x="1301" y="-230.3" font-family="Times,serif" font-size="14.00">[root] local.preferred_number_of_public_subnets (expand)</text>
</g>
<!-- [root] aws_subnet.private (expand)&#45;&gt;[root] local.preferred_number_of_public_subnets (expand) -->
<g id="edge18" class="edge">
<title>[root] aws_subnet.private (expand)&#45;&gt;[root] local.preferred_number_of_public_subnets (expand)</title>
<path fill="none" stroke="black" d="M1267.12,-287.7C1272.36,-279.56 1278.7,-269.69 1284.48,-260.7"/>
<polygon fill="black" stroke="black" points="1287.54,-262.41 1290,-252.1 1281.65,-258.62 1287.54,-262.41"/>
</g>
<!-- [root] aws_subnet.public (expand)&#45;&gt;[root] aws_vpc.vpc (expand) -->
<g id="edge22" class="edge">
<title>[root] aws_subnet.public (expand)&#45;&gt;[root] aws_vpc.vpc (expand)</title>
<path fill="none" stroke="black" d="M906.5,-289.86C903.29,-289.19 900.11,-288.57 897,-288 828.77,-275.56 642.57,-293.5 587,-252 567.4,-237.36 557.8,-210.58 553.17,-190.21"/>
<polygon fill="black" stroke="black" points="556.57,-189.35 551.17,-180.23 549.7,-190.73 556.57,-189.35"/>
</g>
<!-- [root] aws_subnet.public (expand)&#45;&gt;[root] random_shuffle.aws_availability_zones (expand) -->
<g id="edge24" class="edge">
<title>[root] aws_subnet.public (expand)&#45;&gt;[root] random_shuffle.aws_availability_zones (expand)</title>
<path fill="none" stroke="black" d="M1023.59,-299.98C1068.11,-296.29 1130.88,-291.35 1186,-288 1540.16,-266.46 1632.6,-283.84 1989.18,-252.12"/>
<polygon fill="black" stroke="black" points="1989.62,-255.59 1999.27,-251.22 1988.99,-248.62 1989.62,-255.59"/>
</g>
<!-- [root] var.map_public_ip_on_public_subnets_on_launch -->
<g id="node22" class="node">
<title>[root] var.map_public_ip_on_public_subnets_on_launch</title>
<polygon fill="none" stroke="black" points="880,-252 596,-252 596,-216 886,-216 886,-246 880,-252"/>
<polyline fill="none" stroke="black" points="880,-252 880,-246 "/>
<polyline fill="none" stroke="black" points="886,-246 880,-246 "/>
<text text-anchor="middle" x="741" y="-230.3" font-family="Times,serif" font-size="14.00">var.map_public_ip_on_public_subnets_on_launch</text>
</g>
<!-- [root] aws_subnet.public (expand)&#45;&gt;[root] var.map_public_ip_on_public_subnets_on_launch -->
<g id="edge25" class="edge">
<title>[root] aws_subnet.public (expand)&#45;&gt;[root] var.map_public_ip_on_public_subnets_on_launch</title>
<path fill="none" stroke="black" d="M910.49,-287.97C878.78,-278.06 838.64,-265.51 805.39,-255.12"/>
<polygon fill="black" stroke="black" points="806.34,-251.75 795.75,-252.11 804.26,-258.43 806.34,-251.75"/>
</g>
<!-- [root] aws_subnet.public (expand)&#45;&gt;[root] var.subnets_newbit -->
<g id="edge26" class="edge">
<title>[root] aws_subnet.public (expand)&#45;&gt;[root] var.subnets_newbit</title>
<path fill="none" stroke="black" d="M965,-287.7C965,-279.98 965,-270.71 965,-262.11"/>
<polygon fill="black" stroke="black" points="968.5,-262.1 965,-252.1 961.5,-262.1 968.5,-262.1"/>
</g>
<!-- [root] aws_subnet.public (expand)&#45;&gt;[root] local.preferred_number_of_public_subnets (expand) -->
<g id="edge23" class="edge">
<title>[root] aws_subnet.public (expand)&#45;&gt;[root] local.preferred_number_of_public_subnets (expand)</title>
<path fill="none" stroke="black" d="M1023.53,-292.81C1076.33,-281.81 1154.7,-265.48 1214.7,-252.98"/>
<polygon fill="black" stroke="black" points="1215.46,-256.4 1224.54,-250.93 1214.04,-249.54 1215.46,-256.4"/>
</g>
<!-- [root] provider[&quot;registry.terraform.io/hashicorp/aws&quot;] -->
<g id="node13" class="node">
<title>[root] provider[&quot;registry.terraform.io/hashicorp/aws&quot;]</title>
<polygon fill="none" stroke="black" points="1442,-108 1189.46,-90 1442,-72 1694.54,-90 1442,-108"/>
<text text-anchor="middle" x="1442" y="-86.3" font-family="Times,serif" font-size="14.00">provider[&quot;registry.terraform.io/hashicorp/aws&quot;]</text>
</g>
<!-- [root] aws_vpc.vpc (expand)&#45;&gt;[root] provider[&quot;registry.terraform.io/hashicorp/aws&quot;] -->
<g id="edge27" class="edge">
<title>[root] aws_vpc.vpc (expand)&#45;&gt;[root] provider[&quot;registry.terraform.io/hashicorp/aws&quot;]</title>
<path fill="none" stroke="black" d="M592.68,-157.58C723.53,-147.32 1115.81,-116.57 1318.2,-100.7"/>
<polygon fill="black" stroke="black" points="1318.59,-104.18 1328.28,-99.91 1318.04,-97.21 1318.59,-104.18"/>
</g>
<!-- [root] var.cidr_block -->
<g id="node16" class="node">
<title>[root] var.cidr_block</title>
<polygon fill="none" stroke="black" points="891.5,-108 802.5,-108 802.5,-72 897.5,-72 897.5,-102 891.5,-108"/>
<polyline fill="none" stroke="black" points="891.5,-108 891.5,-102 "/>
<polyline fill="none" stroke="black" points="897.5,-102 891.5,-102 "/>
<text text-anchor="middle" x="850" y="-86.3" font-family="Times,serif" font-size="14.00">var.cidr_block</text>
</g>
<!-- [root] aws_vpc.vpc (expand)&#45;&gt;[root] var.cidr_block -->
<g id="edge28" class="edge">
<title>[root] aws_vpc.vpc (expand)&#45;&gt;[root] var.cidr_block</title>
<path fill="none" stroke="black" d="M592.87,-152.52C639.89,-143.19 716.88,-127.25 792.76,-107.96"/>
<polygon fill="black" stroke="black" points="793.67,-111.34 802.49,-105.46 791.93,-104.56 793.67,-111.34"/>
</g>
<!-- [root] var.enable_classiclink -->
<g id="node17" class="node">
<title>[root] var.enable_classiclink</title>
<polygon fill="none" stroke="black" points="130,-108 0,-108 0,-72 136,-72 136,-102 130,-108"/>
<polyline fill="none" stroke="black" points="130,-108 130,-102 "/>
<polyline fill="none" stroke="black" points="136,-102 130,-102 "/>
<text text-anchor="middle" x="68" y="-86.3" font-family="Times,serif" font-size="14.00">var.enable_classiclink</text>
</g>
<!-- [root] aws_vpc.vpc (expand)&#45;&gt;[root] var.enable_classiclink -->
<g id="edge29" class="edge">
<title>[root] aws_vpc.vpc (expand)&#45;&gt;[root] var.enable_classiclink</title>
<path fill="none" stroke="black" d="M505.47,-156.54C433.03,-148.86 283.02,-131.78 146.59,-108.2"/>
<polygon fill="black" stroke="black" points="146.83,-104.69 136.37,-106.42 145.62,-111.58 146.83,-104.69"/>
</g>
<!-- [root] var.enable_classiclink_dns_support -->
<g id="node18" class="node">
<title>[root] var.enable_classiclink_dns_support</title>
<polygon fill="none" stroke="black" points="357.5,-108 154.5,-108 154.5,-72 363.5,-72 363.5,-102 357.5,-108"/>
<polyline fill="none" stroke="black" points="357.5,-108 357.5,-102 "/>
<polyline fill="none" stroke="black" points="363.5,-102 357.5,-102 "/>
<text text-anchor="middle" x="259" y="-86.3" font-family="Times,serif" font-size="14.00">var.enable_classiclink_dns_support</text>
</g>
<!-- [root] aws_vpc.vpc (expand)&#45;&gt;[root] var.enable_classiclink_dns_support -->
<g id="edge30" class="edge">
<title>[root] aws_vpc.vpc (expand)&#45;&gt;[root] var.enable_classiclink_dns_support</title>
<path fill="none" stroke="black" d="M505.27,-150.44C461.48,-139.87 393.06,-123.36 339.45,-110.42"/>
<polygon fill="black" stroke="black" points="340.16,-106.99 329.62,-108.05 338.52,-113.79 340.16,-106.99"/>
</g>
<!-- [root] var.enable_dns_hostnames -->
<g id="node19" class="node">
<title>[root] var.enable_dns_hostnames</title>
<polygon fill="none" stroke="black" points="538,-108 382,-108 382,-72 544,-72 544,-102 538,-108"/>
<polyline fill="none" stroke="black" points="538,-108 538,-102 "/>
<polyline fill="none" stroke="black" points="544,-102 538,-102 "/>
<text text-anchor="middle" x="463" y="-86.3" font-family="Times,serif" font-size="14.00">var.enable_dns_hostnames</text>
</g>
<!-- [root] aws_vpc.vpc (expand)&#45;&gt;[root] var.enable_dns_hostnames -->
<g id="edge31" class="edge">
<title>[root] aws_vpc.vpc (expand)&#45;&gt;[root] var.enable_dns_hostnames</title>
<path fill="none" stroke="black" d="M527.74,-143.7C516.91,-134.88 503.58,-124.03 491.84,-114.47"/>
<polygon fill="black" stroke="black" points="493.98,-111.7 484.01,-108.1 489.56,-117.13 493.98,-111.7"/>
</g>
<!-- [root] var.enable_dns_support -->
<g id="node20" class="node">
<title>[root] var.enable_dns_support</title>
<polygon fill="none" stroke="black" points="701.5,-108 562.5,-108 562.5,-72 707.5,-72 707.5,-102 701.5,-108"/>
<polyline fill="none" stroke="black" points="701.5,-108 701.5,-102 "/>
<polyline fill="none" stroke="black" points="707.5,-102 701.5,-102 "/>
<text text-anchor="middle" x="635" y="-86.3" font-family="Times,serif" font-size="14.00">var.enable_dns_support</text>
</g>
<!-- [root] aws_vpc.vpc (expand)&#45;&gt;[root] var.enable_dns_support -->
<g id="edge32" class="edge">
<title>[root] aws_vpc.vpc (expand)&#45;&gt;[root] var.enable_dns_support</title>
<path fill="none" stroke="black" d="M570.26,-143.7C581.09,-134.88 594.42,-124.03 606.16,-114.47"/>
<polygon fill="black" stroke="black" points="608.44,-117.13 613.99,-108.1 604.02,-111.7 608.44,-117.13"/>
</g>
<!-- [root] var.tags -->
<g id="node29" class="node">
<title>[root] var.tags</title>
<polygon fill="none" stroke="black" points="778.5,-108 725.5,-108 725.5,-72 784.5,-72 784.5,-102 778.5,-108"/>
<polyline fill="none" stroke="black" points="778.5,-108 778.5,-102 "/>
<polyline fill="none" stroke="black" points="784.5,-102 778.5,-102 "/>
<text text-anchor="middle" x="755" y="-86.3" font-family="Times,serif" font-size="14.00">var.tags</text>
</g>
<!-- [root] aws_vpc.vpc (expand)&#45;&gt;[root] var.tags -->
<g id="edge33" class="edge">
<title>[root] aws_vpc.vpc (expand)&#45;&gt;[root] var.tags</title>
<path fill="none" stroke="black" d="M592.67,-148.49C626.62,-138.45 674.71,-123.5 716,-108 716.1,-107.96 716.19,-107.93 716.29,-107.89"/>
<polygon fill="black" stroke="black" points="717.31,-111.25 725.32,-104.32 714.73,-104.74 717.31,-111.25"/>
</g>
<!-- [root] data.aws_availability_zones.available (expand) -->
<g id="node12" class="node">
<title>[root] data.aws_availability_zones.available (expand)</title>
<polygon fill="none" stroke="black" points="1825.5,-180 1604.5,-180 1604.5,-144 1825.5,-144 1825.5,-180"/>
<text text-anchor="middle" x="1715" y="-158.3" font-family="Times,serif" font-size="14.00">data.aws_availability_zones.available</text>
</g>
<!-- [root] data.aws_availability_zones.available (expand)&#45;&gt;[root] provider[&quot;registry.terraform.io/hashicorp/aws&quot;] -->
<g id="edge34" class="edge">
<title>[root] data.aws_availability_zones.available (expand)&#45;&gt;[root] provider[&quot;registry.terraform.io/hashicorp/aws&quot;]</title>
<path fill="none" stroke="black" d="M1648.57,-143.97C1604.49,-132.66 1547.05,-117.94 1503.93,-106.88"/>
<polygon fill="black" stroke="black" points="1504.68,-103.46 1494.13,-104.37 1502.94,-110.24 1504.68,-103.46"/>
</g>
<!-- [root] var.region -->
<g id="node27" class="node">
<title>[root] var.region</title>
<polygon fill="none" stroke="black" points="1471.5,-36 1406.5,-36 1406.5,0 1477.5,0 1477.5,-30 1471.5,-36"/>
<polyline fill="none" stroke="black" points="1471.5,-36 1471.5,-30 "/>
<polyline fill="none" stroke="black" points="1477.5,-30 1471.5,-30 "/>
<text text-anchor="middle" x="1442" y="-14.3" font-family="Times,serif" font-size="14.00">var.region</text>
</g>
<!-- [root] provider[&quot;registry.terraform.io/hashicorp/aws&quot;]&#45;&gt;[root] var.region -->
<g id="edge43" class="edge">
<title>[root] provider[&quot;registry.terraform.io/hashicorp/aws&quot;]&#45;&gt;[root] var.region</title>
<path fill="none" stroke="black" d="M1442,-71.7C1442,-63.98 1442,-54.71 1442,-46.11"/>
<polygon fill="black" stroke="black" points="1445.5,-46.1 1442,-36.1 1438.5,-46.1 1445.5,-46.1"/>
</g>
<!-- [root] provider[&quot;registry.terraform.io/hashicorp/random&quot;] -->
<g id="node14" class="node">
<title>[root] provider[&quot;registry.terraform.io/hashicorp/random&quot;]</title>
<polygon fill="none" stroke="black" points="2116,-180 1843.86,-162 2116,-144 2388.14,-162 2116,-180"/>
<text text-anchor="middle" x="2116" y="-158.3" font-family="Times,serif" font-size="14.00">provider[&quot;registry.terraform.io/hashicorp/random&quot;]</text>
</g>
<!-- [root] random_shuffle.aws_availability_zones (expand)&#45;&gt;[root] data.aws_availability_zones.available (expand) -->
<g id="edge45" class="edge">
<title>[root] random_shuffle.aws_availability_zones (expand)&#45;&gt;[root] data.aws_availability_zones.available (expand)</title>
<path fill="none" stroke="black" d="M2018.42,-215.97C1959.23,-205.63 1883.64,-192.44 1822.71,-181.8"/>
<polygon fill="black" stroke="black" points="1823.13,-178.32 1812.67,-180.05 1821.92,-185.22 1823.13,-178.32"/>
</g>
<!-- [root] random_shuffle.aws_availability_zones (expand)&#45;&gt;[root] provider[&quot;registry.terraform.io/hashicorp/random&quot;] -->
<g id="edge46" class="edge">
<title>[root] random_shuffle.aws_availability_zones (expand)&#45;&gt;[root] provider[&quot;registry.terraform.io/hashicorp/random&quot;]</title>
<path fill="none" stroke="black" d="M2116,-215.7C2116,-207.98 2116,-198.71 2116,-190.11"/>
<polygon fill="black" stroke="black" points="2119.5,-190.1 2116,-180.1 2112.5,-190.1 2119.5,-190.1"/>
</g>
<!-- [root] var.max_number_of_az -->
<g id="node23" class="node">
<title>[root] var.max_number_of_az</title>
<polygon fill="none" stroke="black" points="2546,-180 2406,-180 2406,-144 2552,-144 2552,-174 2546,-180"/>
<polyline fill="none" stroke="black" points="2546,-180 2546,-174 "/>
<polyline fill="none" stroke="black" points="2552,-174 2546,-174 "/>
<text text-anchor="middle" x="2479" y="-158.3" font-family="Times,serif" font-size="14.00">var.max_number_of_az</text>
</g>
<!-- [root] random_shuffle.aws_availability_zones (expand)&#45;&gt;[root] var.max_number_of_az -->
<g id="edge47" class="edge">
<title>[root] random_shuffle.aws_availability_zones (expand)&#45;&gt;[root] var.max_number_of_az</title>
<path fill="none" stroke="black" d="M2208.47,-215.99C2260.75,-206.27 2327.57,-193.68 2395.64,-180.25"/>
<polygon fill="black" stroke="black" points="2396.56,-183.64 2405.7,-178.27 2395.21,-176.77 2396.56,-183.64"/>
</g>
<!-- [root] var.private_subnets_no -->
<g id="node25" class="node">
<title>[root] var.private_subnets_no</title>
<polygon fill="none" stroke="black" points="1580,-180 1444,-180 1444,-144 1586,-144 1586,-174 1580,-180"/>
<polyline fill="none" stroke="black" points="1580,-180 1580,-174 "/>
<polyline fill="none" stroke="black" points="1586,-174 1580,-174 "/>
<text text-anchor="middle" x="1515" y="-158.3" font-family="Times,serif" font-size="14.00">var.private_subnets_no</text>
</g>
<!-- [root] var.public_subnets_no -->
<g id="node26" class="node">
<title>[root] var.public_subnets_no</title>
<polygon fill="none" stroke="black" points="1364,-180 1232,-180 1232,-144 1370,-144 1370,-174 1364,-180"/>
<polyline fill="none" stroke="black" points="1364,-180 1364,-174 "/>
<polyline fill="none" stroke="black" points="1370,-174 1364,-174 "/>
<text text-anchor="middle" x="1301" y="-158.3" font-family="Times,serif" font-size="14.00">var.public_subnets_no</text>
</g>
<!-- [root] local.preferred_number_of_private_subnets (expand)&#45;&gt;[root] data.aws_availability_zones.available (expand) -->
<g id="edge35" class="edge">
<title>[root] local.preferred_number_of_private_subnets (expand)&#45;&gt;[root] data.aws_availability_zones.available (expand)</title>
<path fill="none" stroke="black" d="M1748.88,-215.7C1743.64,-207.56 1737.3,-197.69 1731.52,-188.7"/>
<polygon fill="black" stroke="black" points="1734.35,-186.62 1726,-180.1 1728.46,-190.41 1734.35,-186.62"/>
</g>
<!-- [root] local.preferred_number_of_private_subnets (expand)&#45;&gt;[root] var.private_subnets_no -->
<g id="edge36" class="edge">
<title>[root] local.preferred_number_of_private_subnets (expand)&#45;&gt;[root] var.private_subnets_no</title>
<path fill="none" stroke="black" d="M1702.56,-216.59C1667.24,-206.5 1621.77,-193.5 1584.44,-182.84"/>
<polygon fill="black" stroke="black" points="1585.22,-179.42 1574.64,-180.04 1583.29,-186.15 1585.22,-179.42"/>
</g>
<!-- [root] local.preferred_number_of_public_subnets (expand)&#45;&gt;[root] data.aws_availability_zones.available (expand) -->
<g id="edge37" class="edge">
<title>[root] local.preferred_number_of_public_subnets (expand)&#45;&gt;[root] data.aws_availability_zones.available (expand)</title>
<path fill="none" stroke="black" d="M1392.11,-217.59C1454.61,-207.03 1537.91,-192.94 1604.24,-181.73"/>
<polygon fill="black" stroke="black" points="1605.04,-185.14 1614.32,-180.02 1603.87,-178.24 1605.04,-185.14"/>
</g>
<!-- [root] local.preferred_number_of_public_subnets (expand)&#45;&gt;[root] var.public_subnets_no -->
<g id="edge38" class="edge">
<title>[root] local.preferred_number_of_public_subnets (expand)&#45;&gt;[root] var.public_subnets_no</title>
<path fill="none" stroke="black" d="M1301,-215.7C1301,-207.98 1301,-198.71 1301,-190.11"/>
<polygon fill="black" stroke="black" points="1304.5,-190.1 1301,-180.1 1297.5,-190.1 1304.5,-190.1"/>
</g>
<!-- [root] provider[&quot;registry.terraform.io/hashicorp/aws&quot;] (close) -->
<g id="node32" class="node">
<title>[root] provider[&quot;registry.terraform.io/hashicorp/aws&quot;] (close)</title>
<ellipse fill="none" stroke="black" cx="961" cy="-450" rx="227.46" ry="18"/>
<text text-anchor="middle" x="961" y="-446.3" font-family="Times,serif" font-size="14.00">[root] provider[&quot;registry.terraform.io/hashicorp/aws&quot;] (close)</text>
</g>
<!-- [root] provider[&quot;registry.terraform.io/hashicorp/aws&quot;] (close)&#45;&gt;[root] aws_nat_gateway.nat_gateway (expand) -->
<g id="edge39" class="edge">
<title>[root] provider[&quot;registry.terraform.io/hashicorp/aws&quot;] (close)&#45;&gt;[root] aws_nat_gateway.nat_gateway (expand)</title>
<path fill="none" stroke="black" d="M907.68,-432.41C875.63,-422.44 834.61,-409.68 800.71,-399.13"/>
<polygon fill="black" stroke="black" points="801.48,-395.71 790.9,-396.08 799.4,-402.39 801.48,-395.71"/>
</g>
<!-- [root] provider[&quot;registry.terraform.io/hashicorp/aws&quot;] (close)&#45;&gt;[root] aws_route.public_route (expand) -->
<g id="edge40" class="edge">
<title>[root] provider[&quot;registry.terraform.io/hashicorp/aws&quot;] (close)&#45;&gt;[root] aws_route.public_route (expand)</title>
<path fill="none" stroke="black" d="M861.32,-433.81C796.69,-423.71 710.73,-409.81 635,-396 634.41,-395.89 633.81,-395.78 633.21,-395.67"/>
<polygon fill="black" stroke="black" points="633.83,-392.23 623.36,-393.83 632.55,-399.11 633.83,-392.23"/>
</g>
<!-- [root] provider[&quot;registry.terraform.io/hashicorp/aws&quot;] (close)&#45;&gt;[root] aws_route_table_association.private_rta (expand) -->
<g id="edge41" class="edge">
<title>[root] provider[&quot;registry.terraform.io/hashicorp/aws&quot;] (close)&#45;&gt;[root] aws_route_table_association.private_rta (expand)</title>
<path fill="none" stroke="black" d="M1019.61,-432.59C1055.65,-422.5 1102.05,-409.5 1140.14,-398.84"/>
<polygon fill="black" stroke="black" points="1141.46,-402.11 1150.14,-396.04 1139.57,-395.37 1141.46,-402.11"/>
</g>
<!-- [root] provider[&quot;registry.terraform.io/hashicorp/aws&quot;] (close)&#45;&gt;[root] aws_route_table_association.public_rta (expand) -->
<g id="edge42" class="edge">
<title>[root] provider[&quot;registry.terraform.io/hashicorp/aws&quot;] (close)&#45;&gt;[root] aws_route_table_association.public_rta (expand)</title>
<path fill="none" stroke="black" d="M961,-431.7C961,-423.98 961,-414.71 961,-406.11"/>
<polygon fill="black" stroke="black" points="964.5,-406.1 961,-396.1 957.5,-406.1 964.5,-406.1"/>
</g>
<!-- [root] provider[&quot;registry.terraform.io/hashicorp/random&quot;] (close) -->
<g id="node33" class="node">
<title>[root] provider[&quot;registry.terraform.io/hashicorp/random&quot;] (close)</title>
<ellipse fill="none" stroke="black" cx="1614" cy="-450" rx="241.26" ry="18"/>
<text text-anchor="middle" x="1614" y="-446.3" font-family="Times,serif" font-size="14.00">[root] provider[&quot;registry.terraform.io/hashicorp/random&quot;] (close)</text>
</g>
<!-- [root] provider[&quot;registry.terraform.io/hashicorp/random&quot;] (close)&#45;&gt;[root] random_shuffle.aws_availability_zones (expand) -->
<g id="edge44" class="edge">
<title>[root] provider[&quot;registry.terraform.io/hashicorp/random&quot;] (close)&#45;&gt;[root] random_shuffle.aws_availability_zones (expand)</title>
<path fill="none" stroke="black" d="M1653.39,-432.21C1744.08,-393.55 1967.43,-298.34 2066.87,-255.94"/>
<polygon fill="black" stroke="black" points="2068.27,-259.15 2076.1,-252.01 2065.53,-252.71 2068.27,-259.15"/>
</g>
<!-- [root] root -->
<g id="node34" class="node">
<title>[root] root</title>
<ellipse fill="none" stroke="black" cx="1204" cy="-522" rx="47.39" ry="18"/>
<text text-anchor="middle" x="1204" y="-518.3" font-family="Times,serif" font-size="14.00">[root] root</text>
</g>
<!-- [root] root&#45;&gt;[root] provider[&quot;registry.terraform.io/hashicorp/aws&quot;] (close) -->
<g id="edge48" class="edge">
<title>[root] root&#45;&gt;[root] provider[&quot;registry.terraform.io/hashicorp/aws&quot;] (close)</title>
<path fill="none" stroke="black" d="M1167.36,-510.44C1130.55,-499.84 1072.98,-483.26 1027.99,-470.3"/>
<polygon fill="black" stroke="black" points="1028.89,-466.91 1018.31,-467.51 1026.95,-473.64 1028.89,-466.91"/>
</g>
<!-- [root] root&#45;&gt;[root] provider[&quot;registry.terraform.io/hashicorp/random&quot;] (close) -->
<g id="edge49" class="edge">
<title>[root] root&#45;&gt;[root] provider[&quot;registry.terraform.io/hashicorp/random&quot;] (close)</title>
<path fill="none" stroke="black" d="M1246.33,-513.77C1308.52,-503.15 1426.46,-483.02 1512.03,-468.41"/>
<polygon fill="black" stroke="black" points="1512.77,-471.83 1522.04,-466.7 1511.59,-464.93 1512.77,-471.83"/>
</g>
</g>
</svg>
